<svg width="24" height="33" viewBox="0 0 24 33" fill="none" xmlns="http://www.w3.org/2000/svg">
<g filter="url(#filter0_d_216_5980)">
<path d="M4 0H12.4404C13.3321 0 14.2028 0.159923 15.0524 0.479769C15.9021 0.799614 16.6614 1.29392 17.3301 1.96269C17.9989 2.63146 18.532 3.47953 18.9294 4.5053C19.3268 5.53107 19.5254 6.74907 19.5254 8.16091C19.5254 9.57276 19.2977 10.7342 18.8405 11.7358C18.3834 12.7389 17.7921 13.5676 17.0652 14.2218C16.3383 14.8761 15.5112 15.3623 14.5856 15.6805C13.66 15.9987 12.7166 16.1571 11.7555 16.1571H9.5553V21.6994C9.5553 22.05 9.57953 22.4134 9.62799 22.7898C9.67645 23.1161 9.7233 23.4586 9.77176 23.8156C9.82022 24.1726 9.90422 24.4844 10.0238 24.7509H4.03554C4.15669 24.4488 4.25523 24.1274 4.33438 23.7833C4.41192 23.4392 4.47654 23.1113 4.525 22.7979C4.57346 22.4474 4.59769 22.0855 4.59769 21.7124V3.03853C4.59769 2.73646 4.57346 2.42954 4.525 2.11615C4.47654 1.83831 4.41677 1.51684 4.34408 1.14854C4.27138 0.78023 4.15669 0.397384 4 0ZM9.5553 12.2672H11.2854C11.6811 12.2672 12.0753 12.1913 12.4662 12.0411C12.8571 11.8908 13.2061 11.655 13.5114 11.3351C13.8183 11.0153 14.0703 10.5969 14.269 10.0768C14.4677 9.55822 14.5662 8.93145 14.5662 8.19484C14.5662 7.72476 14.5178 7.2353 14.4224 6.72968C14.3271 6.22245 14.1543 5.75884 13.9088 5.33722C13.6616 4.91561 13.3466 4.5683 12.9621 4.29692C12.5777 4.02553 12.1028 3.88984 11.5374 3.88984H9.55369V12.2672H9.5553Z" fill="black"/>
<path d="M13.8721 11.6813C13.519 12.051 13.1091 12.3297 12.6456 12.5078C12.2013 12.6785 11.7465 12.7672 11.2854 12.7672H9.5553H9.55369H9.05369V12.2672V3.88984V3.38984H9.55369H11.5374C12.1848 3.38984 12.7658 3.54633 13.2505 3.88843C13.6961 4.20297 14.0588 4.60443 14.3401 5.08436L14.3408 5.0856C14.6159 5.55785 14.8083 6.07554 14.9138 6.63735M13.8721 11.6813L14.4224 6.72968M13.8721 11.6813C14.2354 11.3028 14.5192 10.8227 14.7359 10.2557M13.8721 11.6813L14.269 10.0768M14.9138 6.63735L14.4224 6.72968M14.9138 6.63735C14.9138 6.63726 14.9138 6.63716 14.9138 6.63707L14.4224 6.72968M14.9138 6.63735C15.0143 7.17011 15.0662 7.6906 15.0662 8.19484C15.0662 8.97336 14.9624 9.66445 14.7359 10.2557M14.4224 6.72968C14.5178 7.2353 14.5662 7.72476 14.5662 8.19484C14.5662 8.93145 14.4677 9.55822 14.269 10.0768M14.7359 10.2557C14.7359 10.2555 14.736 10.2553 14.7361 10.2552L14.269 10.0768M14.7359 10.2557L14.269 10.0768M4.69971 0.5H12.4404C13.2708 0.5 14.0819 0.648671 14.8763 0.947714C15.6566 1.24144 16.356 1.69565 16.9766 2.31624C17.5887 2.92836 18.0868 3.71438 18.4631 4.68592C18.8329 5.64036 19.0254 6.79418 19.0254 8.16091C19.0254 9.51819 18.8067 10.6057 18.3857 11.5281L18.3855 11.5284C17.9531 12.4773 17.4004 13.2475 16.7307 13.8502C16.0539 14.4593 15.2853 14.9112 14.423 15.2077C13.549 15.5082 12.6605 15.6571 11.7555 15.6571H9.5553H9.0553V16.1571V21.6994C9.0553 22.073 9.08112 22.4578 9.13209 22.8537L9.13199 22.8537L9.13342 22.8633C9.18136 23.1861 9.22782 23.5257 9.27631 23.8828C9.29345 24.0091 9.31482 24.1319 9.34067 24.2509H4.73121C4.76382 24.1345 4.79391 24.016 4.82166 23.8954L4.82215 23.8932C4.9015 23.5411 4.96851 23.2017 5.01913 22.8743L5.01919 22.8743L5.02029 22.8664C5.07205 22.4919 5.09769 22.1072 5.09769 21.7124V3.03853C5.09769 2.70958 5.07129 2.37709 5.01913 2.03974L5.01922 2.03973L5.01756 2.03024C4.96838 1.74823 4.90791 1.4231 4.83461 1.05172C4.79873 0.869906 4.75369 0.685984 4.69971 0.5Z" stroke="black"/>
</g>
<defs>
<filter id="filter0_d_216_5980" x="0" y="0" width="23.5254" height="32.7509" filterUnits="userSpaceOnUse" color-interpolation-filters="sRGB">
<feFlood flood-opacity="0" result="BackgroundImageFix"/>
<feColorMatrix in="SourceAlpha" type="matrix" values="0 0 0 0 0 0 0 0 0 0 0 0 0 0 0 0 0 0 127 0" result="hardAlpha"/>
<feOffset dy="4"/>
<feGaussianBlur stdDeviation="2"/>
<feComposite in2="hardAlpha" operator="out"/>
<feColorMatrix type="matrix" values="0 0 0 0 0 0 0 0 0 0 0 0 0 0 0 0 0 0 0.25 0"/>
<feBlend mode="normal" in2="BackgroundImageFix" result="effect1_dropShadow_216_5980"/>
<feBlend mode="normal" in="SourceGraphic" in2="effect1_dropShadow_216_5980" result="shape"/>
</filter>
</defs>
</svg>
