<svg width="50" height="50" viewBox="0 0 50 50" fill="none" xmlns="http://www.w3.org/2000/svg">
<circle cx="25" cy="25" r="25" fill="#D9D9D9"/>
<g filter="url(#filter0_d_309_6400)">
<path d="M17 13H25.4404C26.3321 13 27.2028 13.1599 28.0524 13.4798C28.9021 13.7996 29.6614 14.2939 30.3301 14.9627C30.9989 15.6315 31.532 16.4795 31.9294 17.5053C32.3268 18.5311 32.5254 19.7491 32.5254 21.1609C32.5254 22.5728 32.2977 23.7342 31.8405 24.7358C31.3834 25.7389 30.7921 26.5676 30.0652 27.2218C29.3383 27.8761 28.5112 28.3623 27.5856 28.6805C26.66 28.9987 25.7166 29.1571 24.7555 29.1571H22.5553V34.6994C22.5553 35.05 22.5795 35.4134 22.628 35.7898C22.6765 36.1161 22.7233 36.4586 22.7718 36.8156C22.8202 37.1726 22.9042 37.4844 23.0238 37.7509H17.0355C17.1567 37.4488 17.2552 37.1274 17.3344 36.7833C17.4119 36.4392 17.4765 36.1113 17.525 35.7979C17.5735 35.4474 17.5977 35.0855 17.5977 34.7124V16.0385C17.5977 15.7365 17.5735 15.4295 17.525 15.1162C17.4765 14.8383 17.4168 14.5168 17.3441 14.1485C17.2714 13.7802 17.1567 13.3974 17 13ZM22.5553 25.2672H24.2854C24.6811 25.2672 25.0753 25.1913 25.4662 25.0411C25.8571 24.8908 26.2061 24.655 26.5114 24.3351C26.8183 24.0153 27.0703 23.5969 27.269 23.0768C27.4677 22.5582 27.5662 21.9315 27.5662 21.1948C27.5662 20.7248 27.5178 20.2353 27.4224 19.7297C27.3271 19.2225 27.1543 18.7588 26.9088 18.3372C26.6616 17.9156 26.3466 17.5683 25.9621 17.2969C25.5777 17.0255 25.1028 16.8898 24.5374 16.8898H22.5537V25.2672H22.5553Z" fill="black"/>
<path d="M31.3857 24.5281L31.3855 24.5284C30.9531 25.4773 30.4004 26.2475 29.7307 26.8502C29.0539 27.4593 28.2853 27.9112 27.423 28.2077C26.549 28.5082 25.6605 28.6571 24.7555 28.6571H22.5553H22.0553V29.1571V34.6994C22.0553 35.073 22.0811 35.4578 22.1321 35.8537L22.132 35.8537L22.1334 35.8633C22.1814 36.1861 22.2278 36.5257 22.2763 36.8828C22.2934 37.0091 22.3148 37.1319 22.3407 37.2509H17.7312C17.7638 37.1345 17.7939 37.016 17.8217 36.8954L17.8222 36.8932C17.9015 36.5411 17.9685 36.2016 18.0191 35.8743L18.0192 35.8743L18.0203 35.8664C18.0721 35.4919 18.0977 35.1072 18.0977 34.7124V16.0385C18.0977 15.7096 18.0713 15.3771 18.0191 15.0397L18.0192 15.0397L18.0176 15.0302C17.9684 14.7482 17.9079 14.4231 17.8346 14.0517C17.7987 13.8699 17.7537 13.686 17.6997 13.5H25.4404C26.2708 13.5 27.0819 13.6487 27.8763 13.9477C28.6566 14.2414 29.356 14.6956 29.9766 15.3162C30.5887 15.9284 31.0868 16.7144 31.4631 17.6859C31.8329 18.6404 32.0254 19.7942 32.0254 21.1609C32.0254 22.5182 31.8067 23.6057 31.3857 24.5281ZM26.8721 24.6813C27.2355 24.3026 27.5194 23.8225 27.7361 23.2552C27.9625 22.6641 28.0662 21.9732 28.0662 21.1948C28.0662 20.6905 28.0142 20.1699 27.9138 19.6371C27.8082 19.0754 27.6158 18.5578 27.3408 18.0856L27.3401 18.0844C27.0588 17.6044 26.6961 17.203 26.2505 16.8884C25.7658 16.5463 25.1848 16.3898 24.5374 16.3898H22.5537H22.0537V16.8898V25.2672V25.7672H22.5537H22.5553H24.2854C24.7465 25.7672 25.2013 25.6785 25.6456 25.5078C26.1091 25.3297 26.519 25.051 26.8721 24.6813Z" stroke="black"/>
</g>
<defs>
<filter id="filter0_d_309_6400" x="13" y="13" width="23.5254" height="32.7509" filterUnits="userSpaceOnUse" color-interpolation-filters="sRGB">
<feFlood flood-opacity="0" result="BackgroundImageFix"/>
<feColorMatrix in="SourceAlpha" type="matrix" values="0 0 0 0 0 0 0 0 0 0 0 0 0 0 0 0 0 0 127 0" result="hardAlpha"/>
<feOffset dy="4"/>
<feGaussianBlur stdDeviation="2"/>
<feComposite in2="hardAlpha" operator="out"/>
<feColorMatrix type="matrix" values="0 0 0 0 0 0 0 0 0 0 0 0 0 0 0 0 0 0 0.25 0"/>
<feBlend mode="normal" in2="BackgroundImageFix" result="effect1_dropShadow_309_6400"/>
<feBlend mode="normal" in="SourceGraphic" in2="effect1_dropShadow_309_6400" result="shape"/>
</filter>
</defs>
</svg>
