<svg width="33" height="32" viewBox="0 0 33 32" fill="none" xmlns="http://www.w3.org/2000/svg">
<g id="search">
<path id="Vector" d="M21.6641 19.0065H20.5778L20.1928 18.6465C21.5403 17.1265 22.3516 15.1532 22.3516 13.0065C22.3516 8.21984 18.3503 4.33984 13.4141 4.33984C8.47781 4.33984 4.47656 8.21984 4.47656 13.0065C4.47656 17.7932 8.47781 21.6732 13.4141 21.6732C15.6278 21.6732 17.6628 20.8865 19.2303 19.5798L19.6016 19.9532V21.0065L26.4766 27.6598L28.5253 25.6732L21.6641 19.0065ZM13.4141 19.0065C9.99031 19.0065 7.22656 16.3265 7.22656 13.0065C7.22656 9.68651 9.99031 7.00651 13.4141 7.00651C16.8378 7.00651 19.6016 9.68651 19.6016 13.0065C19.6016 16.3265 16.8378 19.0065 13.4141 19.0065Z" fill="black"/>
</g>
</svg>
